<mxfile host="app.diagrams.net" modified="2021-03-24T13:47:15.778Z" agent="5.0 (Windows NT 10.0; Win64; x64) AppleWebKit/537.36 (KHTML, like Gecko) Chrome/89.0.4389.90 Safari/537.36" etag="HgN2XwzQVZYvOPmVLGSU" version="14.5.1" type="github">
  <diagram id="prtHgNgQTEPvFCAcTncT" name="Page-1">
    <mxGraphModel dx="1570" dy="399" grid="1" gridSize="10" guides="1" tooltips="1" connect="1" arrows="1" fold="1" page="1" pageScale="1" pageWidth="827" pageHeight="1169" background="#F1FAEE" math="0" shadow="0">
      <root>
        <mxCell id="0" />
        <mxCell id="1" parent="0" />
        <mxCell id="GUcHN5ARu1pP9IUez5kW-1" value="Seller" style="shape=table;startSize=30;container=1;collapsible=1;childLayout=tableLayout;fixedRows=1;rowLines=0;fontStyle=1;align=center;resizeLast=1;fillColor=#A8DADC;strokeColor=#457B9D;fontColor=#1D3557;" vertex="1" parent="1">
          <mxGeometry x="30" y="90" width="180" height="200" as="geometry">
            <mxRectangle x="30" y="90" width="60" height="30" as="alternateBounds" />
          </mxGeometry>
        </mxCell>
        <mxCell id="GUcHN5ARu1pP9IUez5kW-2" value="" style="shape=partialRectangle;collapsible=0;dropTarget=0;pointerEvents=0;fillColor=none;top=0;left=0;bottom=1;right=0;points=[[0,0.5],[1,0.5]];portConstraint=eastwest;strokeColor=#457B9D;fontColor=#1D3557;" vertex="1" parent="GUcHN5ARu1pP9IUez5kW-1">
          <mxGeometry y="30" width="180" height="30" as="geometry" />
        </mxCell>
        <mxCell id="GUcHN5ARu1pP9IUez5kW-3" value="PK" style="shape=partialRectangle;connectable=0;fillColor=none;top=0;left=0;bottom=0;right=0;fontStyle=1;overflow=hidden;strokeColor=#457B9D;fontColor=#1D3557;" vertex="1" parent="GUcHN5ARu1pP9IUez5kW-2">
          <mxGeometry width="30" height="30" as="geometry" />
        </mxCell>
        <mxCell id="GUcHN5ARu1pP9IUez5kW-4" value="SellerID" style="shape=partialRectangle;connectable=0;fillColor=none;top=0;left=0;bottom=0;right=0;align=left;spacingLeft=6;fontStyle=5;overflow=hidden;strokeColor=#457B9D;fontColor=#1D3557;" vertex="1" parent="GUcHN5ARu1pP9IUez5kW-2">
          <mxGeometry x="30" width="150" height="30" as="geometry" />
        </mxCell>
        <mxCell id="GUcHN5ARu1pP9IUez5kW-5" value="" style="shape=partialRectangle;collapsible=0;dropTarget=0;pointerEvents=0;fillColor=none;top=0;left=0;bottom=0;right=0;points=[[0,0.5],[1,0.5]];portConstraint=eastwest;strokeColor=#457B9D;fontColor=#1D3557;" vertex="1" parent="GUcHN5ARu1pP9IUez5kW-1">
          <mxGeometry y="60" width="180" height="20" as="geometry" />
        </mxCell>
        <mxCell id="GUcHN5ARu1pP9IUez5kW-6" value="" style="shape=partialRectangle;connectable=0;fillColor=none;top=0;left=0;bottom=0;right=0;editable=1;overflow=hidden;strokeColor=#457B9D;fontColor=#1D3557;" vertex="1" parent="GUcHN5ARu1pP9IUez5kW-5">
          <mxGeometry width="30" height="20" as="geometry" />
        </mxCell>
        <mxCell id="GUcHN5ARu1pP9IUez5kW-7" value="Username" style="shape=partialRectangle;connectable=0;fillColor=none;top=0;left=0;bottom=0;right=0;align=left;spacingLeft=6;overflow=hidden;strokeColor=#457B9D;fontColor=#1D3557;" vertex="1" parent="GUcHN5ARu1pP9IUez5kW-5">
          <mxGeometry x="30" width="150" height="20" as="geometry" />
        </mxCell>
        <mxCell id="GUcHN5ARu1pP9IUez5kW-8" value="" style="shape=partialRectangle;collapsible=0;dropTarget=0;pointerEvents=0;fillColor=none;top=0;left=0;bottom=0;right=0;points=[[0,0.5],[1,0.5]];portConstraint=eastwest;strokeColor=#457B9D;fontColor=#1D3557;" vertex="1" parent="GUcHN5ARu1pP9IUez5kW-1">
          <mxGeometry y="80" width="180" height="20" as="geometry" />
        </mxCell>
        <mxCell id="GUcHN5ARu1pP9IUez5kW-9" value="" style="shape=partialRectangle;connectable=0;fillColor=none;top=0;left=0;bottom=0;right=0;editable=1;overflow=hidden;strokeColor=#457B9D;fontColor=#1D3557;" vertex="1" parent="GUcHN5ARu1pP9IUez5kW-8">
          <mxGeometry width="30" height="20" as="geometry" />
        </mxCell>
        <mxCell id="GUcHN5ARu1pP9IUez5kW-10" value="Password" style="shape=partialRectangle;connectable=0;fillColor=none;top=0;left=0;bottom=0;right=0;align=left;spacingLeft=6;overflow=hidden;strokeColor=#457B9D;fontColor=#1D3557;" vertex="1" parent="GUcHN5ARu1pP9IUez5kW-8">
          <mxGeometry x="30" width="150" height="20" as="geometry" />
        </mxCell>
        <mxCell id="GUcHN5ARu1pP9IUez5kW-33" style="shape=partialRectangle;collapsible=0;dropTarget=0;pointerEvents=0;fillColor=none;top=0;left=0;bottom=0;right=0;points=[[0,0.5],[1,0.5]];portConstraint=eastwest;strokeColor=#457B9D;fontColor=#1D3557;" vertex="1" parent="GUcHN5ARu1pP9IUez5kW-1">
          <mxGeometry y="100" width="180" height="20" as="geometry" />
        </mxCell>
        <mxCell id="GUcHN5ARu1pP9IUez5kW-34" style="shape=partialRectangle;connectable=0;fillColor=none;top=0;left=0;bottom=0;right=0;editable=1;overflow=hidden;strokeColor=#457B9D;fontColor=#1D3557;" vertex="1" parent="GUcHN5ARu1pP9IUez5kW-33">
          <mxGeometry width="30" height="20" as="geometry" />
        </mxCell>
        <mxCell id="GUcHN5ARu1pP9IUez5kW-35" value="Name" style="shape=partialRectangle;connectable=0;fillColor=none;top=0;left=0;bottom=0;right=0;align=left;spacingLeft=6;overflow=hidden;strokeColor=#457B9D;fontColor=#1D3557;" vertex="1" parent="GUcHN5ARu1pP9IUez5kW-33">
          <mxGeometry x="30" width="150" height="20" as="geometry" />
        </mxCell>
        <mxCell id="GUcHN5ARu1pP9IUez5kW-39" style="shape=partialRectangle;collapsible=0;dropTarget=0;pointerEvents=0;fillColor=none;top=0;left=0;bottom=0;right=0;points=[[0,0.5],[1,0.5]];portConstraint=eastwest;strokeColor=#457B9D;fontColor=#1D3557;" vertex="1" parent="GUcHN5ARu1pP9IUez5kW-1">
          <mxGeometry y="120" width="180" height="20" as="geometry" />
        </mxCell>
        <mxCell id="GUcHN5ARu1pP9IUez5kW-40" style="shape=partialRectangle;connectable=0;fillColor=none;top=0;left=0;bottom=0;right=0;editable=1;overflow=hidden;strokeColor=#457B9D;fontColor=#1D3557;" vertex="1" parent="GUcHN5ARu1pP9IUez5kW-39">
          <mxGeometry width="30" height="20" as="geometry" />
        </mxCell>
        <mxCell id="GUcHN5ARu1pP9IUez5kW-41" value="TcNO" style="shape=partialRectangle;connectable=0;fillColor=none;top=0;left=0;bottom=0;right=0;align=left;spacingLeft=6;overflow=hidden;strokeColor=#457B9D;fontColor=#1D3557;" vertex="1" parent="GUcHN5ARu1pP9IUez5kW-39">
          <mxGeometry x="30" width="150" height="20" as="geometry" />
        </mxCell>
        <mxCell id="GUcHN5ARu1pP9IUez5kW-42" style="shape=partialRectangle;collapsible=0;dropTarget=0;pointerEvents=0;fillColor=none;top=0;left=0;bottom=0;right=0;points=[[0,0.5],[1,0.5]];portConstraint=eastwest;strokeColor=#457B9D;fontColor=#1D3557;" vertex="1" parent="GUcHN5ARu1pP9IUez5kW-1">
          <mxGeometry y="140" width="180" height="20" as="geometry" />
        </mxCell>
        <mxCell id="GUcHN5ARu1pP9IUez5kW-43" style="shape=partialRectangle;connectable=0;fillColor=none;top=0;left=0;bottom=0;right=0;editable=1;overflow=hidden;strokeColor=#457B9D;fontColor=#1D3557;" vertex="1" parent="GUcHN5ARu1pP9IUez5kW-42">
          <mxGeometry width="30" height="20" as="geometry" />
        </mxCell>
        <mxCell id="GUcHN5ARu1pP9IUez5kW-44" value="Shipping" style="shape=partialRectangle;connectable=0;fillColor=none;top=0;left=0;bottom=0;right=0;align=left;spacingLeft=6;overflow=hidden;strokeColor=#457B9D;fontColor=#1D3557;" vertex="1" parent="GUcHN5ARu1pP9IUez5kW-42">
          <mxGeometry x="30" width="150" height="20" as="geometry" />
        </mxCell>
        <mxCell id="GUcHN5ARu1pP9IUez5kW-45" style="shape=partialRectangle;collapsible=0;dropTarget=0;pointerEvents=0;fillColor=none;top=0;left=0;bottom=0;right=0;points=[[0,0.5],[1,0.5]];portConstraint=eastwest;strokeColor=#457B9D;fontColor=#1D3557;" vertex="1" parent="GUcHN5ARu1pP9IUez5kW-1">
          <mxGeometry y="160" width="180" height="20" as="geometry" />
        </mxCell>
        <mxCell id="GUcHN5ARu1pP9IUez5kW-46" style="shape=partialRectangle;connectable=0;fillColor=none;top=0;left=0;bottom=0;right=0;editable=1;overflow=hidden;strokeColor=#457B9D;fontColor=#1D3557;" vertex="1" parent="GUcHN5ARu1pP9IUez5kW-45">
          <mxGeometry width="30" height="20" as="geometry" />
        </mxCell>
        <mxCell id="GUcHN5ARu1pP9IUez5kW-47" value="Contact" style="shape=partialRectangle;connectable=0;fillColor=none;top=0;left=0;bottom=0;right=0;align=left;spacingLeft=6;overflow=hidden;strokeColor=#457B9D;fontColor=#1D3557;" vertex="1" parent="GUcHN5ARu1pP9IUez5kW-45">
          <mxGeometry x="30" width="150" height="20" as="geometry" />
        </mxCell>
        <mxCell id="GUcHN5ARu1pP9IUez5kW-48" style="shape=partialRectangle;collapsible=0;dropTarget=0;pointerEvents=0;fillColor=none;top=0;left=0;bottom=0;right=0;points=[[0,0.5],[1,0.5]];portConstraint=eastwest;strokeColor=#457B9D;fontColor=#1D3557;" vertex="1" parent="GUcHN5ARu1pP9IUez5kW-1">
          <mxGeometry y="180" width="180" height="20" as="geometry" />
        </mxCell>
        <mxCell id="GUcHN5ARu1pP9IUez5kW-49" style="shape=partialRectangle;connectable=0;fillColor=none;top=0;left=0;bottom=0;right=0;editable=1;overflow=hidden;strokeColor=#457B9D;fontColor=#1D3557;" vertex="1" parent="GUcHN5ARu1pP9IUez5kW-48">
          <mxGeometry width="30" height="20" as="geometry" />
        </mxCell>
        <mxCell id="GUcHN5ARu1pP9IUez5kW-50" style="shape=partialRectangle;connectable=0;fillColor=none;top=0;left=0;bottom=0;right=0;align=left;spacingLeft=6;overflow=hidden;strokeColor=#457B9D;fontColor=#1D3557;" vertex="1" parent="GUcHN5ARu1pP9IUez5kW-48">
          <mxGeometry x="30" width="150" height="20" as="geometry" />
        </mxCell>
        <mxCell id="GUcHN5ARu1pP9IUez5kW-76" value="TcNO" style="swimlane;fontStyle=0;childLayout=stackLayout;horizontal=1;startSize=26;horizontalStack=0;resizeParent=1;resizeParentMax=0;resizeLast=0;collapsible=1;marginBottom=0;align=center;fontSize=14;fillColor=#A8DADC;strokeColor=#457B9D;fontColor=#1D3557;" vertex="1" collapsed="1" parent="1">
          <mxGeometry x="-240" y="114" width="160" height="26" as="geometry">
            <mxRectangle x="-240" y="114" width="160" height="116" as="alternateBounds" />
          </mxGeometry>
        </mxCell>
        <mxCell id="GUcHN5ARu1pP9IUez5kW-77" value="TcNO" style="text;strokeColor=none;fillColor=none;spacingLeft=4;spacingRight=4;overflow=hidden;rotatable=0;points=[[0,0.5],[1,0.5]];portConstraint=eastwest;fontSize=12;fontColor=#1D3557;" vertex="1" parent="GUcHN5ARu1pP9IUez5kW-76">
          <mxGeometry y="26" width="160" height="30" as="geometry" />
        </mxCell>
        <mxCell id="GUcHN5ARu1pP9IUez5kW-78" value="TcValidate" style="text;strokeColor=none;fillColor=none;spacingLeft=4;spacingRight=4;overflow=hidden;rotatable=0;points=[[0,0.5],[1,0.5]];portConstraint=eastwest;fontSize=12;fontColor=#1D3557;" vertex="1" parent="GUcHN5ARu1pP9IUez5kW-76">
          <mxGeometry y="56" width="160" height="30" as="geometry" />
        </mxCell>
        <mxCell id="GUcHN5ARu1pP9IUez5kW-79" value="TcValidateDATE" style="text;strokeColor=none;fillColor=none;spacingLeft=4;spacingRight=4;overflow=hidden;rotatable=0;points=[[0,0.5],[1,0.5]];portConstraint=eastwest;fontSize=12;fontColor=#1D3557;" vertex="1" parent="GUcHN5ARu1pP9IUez5kW-76">
          <mxGeometry y="86" width="160" height="30" as="geometry" />
        </mxCell>
        <mxCell id="GUcHN5ARu1pP9IUez5kW-80" value="" style="edgeStyle=entityRelationEdgeStyle;fontSize=12;html=1;endArrow=ERone;endFill=1;exitX=0;exitY=0.5;exitDx=0;exitDy=0;entryX=1;entryY=0;entryDx=0;entryDy=0;labelBackgroundColor=#F1FAEE;strokeColor=#457B9D;fontColor=#1D3557;" edge="1" parent="1" source="GUcHN5ARu1pP9IUez5kW-39" target="GUcHN5ARu1pP9IUez5kW-76">
          <mxGeometry width="100" height="100" relative="1" as="geometry">
            <mxPoint x="90" y="310" as="sourcePoint" />
            <mxPoint x="190" y="210" as="targetPoint" />
          </mxGeometry>
        </mxCell>
        <mxCell id="GUcHN5ARu1pP9IUez5kW-81" value="Name" style="swimlane;fontStyle=0;childLayout=stackLayout;horizontal=1;startSize=26;horizontalStack=0;resizeParent=1;resizeParentMax=0;resizeLast=0;collapsible=1;marginBottom=0;align=center;fontSize=14;fillColor=#A8DADC;strokeColor=#457B9D;fontColor=#1D3557;" vertex="1" collapsed="1" parent="1">
          <mxGeometry x="-240" y="20" width="160" height="26" as="geometry">
            <mxRectangle x="-240" y="20" width="160" height="86" as="alternateBounds" />
          </mxGeometry>
        </mxCell>
        <mxCell id="GUcHN5ARu1pP9IUez5kW-82" value="First Name" style="text;strokeColor=none;fillColor=none;spacingLeft=4;spacingRight=4;overflow=hidden;rotatable=0;points=[[0,0.5],[1,0.5]];portConstraint=eastwest;fontSize=12;fontColor=#1D3557;" vertex="1" parent="GUcHN5ARu1pP9IUez5kW-81">
          <mxGeometry y="26" width="160" height="30" as="geometry" />
        </mxCell>
        <mxCell id="GUcHN5ARu1pP9IUez5kW-83" value="Last Name" style="text;strokeColor=none;fillColor=none;spacingLeft=4;spacingRight=4;overflow=hidden;rotatable=0;points=[[0,0.5],[1,0.5]];portConstraint=eastwest;fontSize=12;fontColor=#1D3557;" vertex="1" parent="GUcHN5ARu1pP9IUez5kW-81">
          <mxGeometry y="56" width="160" height="30" as="geometry" />
        </mxCell>
        <mxCell id="GUcHN5ARu1pP9IUez5kW-85" value="" style="edgeStyle=entityRelationEdgeStyle;fontSize=12;html=1;endArrow=ERone;endFill=1;exitX=0;exitY=0.5;exitDx=0;exitDy=0;entryX=1;entryY=0;entryDx=0;entryDy=0;labelBackgroundColor=#F1FAEE;strokeColor=#457B9D;fontColor=#1D3557;" edge="1" parent="1" source="GUcHN5ARu1pP9IUez5kW-33" target="GUcHN5ARu1pP9IUez5kW-81">
          <mxGeometry width="100" height="100" relative="1" as="geometry">
            <mxPoint x="40" y="230" as="sourcePoint" />
            <mxPoint x="-20" y="290" as="targetPoint" />
          </mxGeometry>
        </mxCell>
        <mxCell id="GUcHN5ARu1pP9IUez5kW-157" value="Shipping" style="swimlane;fontStyle=0;childLayout=stackLayout;horizontal=1;startSize=26;horizontalStack=0;resizeParent=1;resizeParentMax=0;resizeLast=0;collapsible=1;marginBottom=0;align=center;fontSize=14;glass=0;shadow=0;fillColor=#A8DADC;strokeColor=#457B9D;fontColor=#1D3557;" vertex="1" collapsed="1" parent="1">
          <mxGeometry x="-240" y="240" width="160" height="26" as="geometry">
            <mxRectangle x="-240" y="240" width="160" height="206" as="alternateBounds" />
          </mxGeometry>
        </mxCell>
        <mxCell id="GUcHN5ARu1pP9IUez5kW-158" value="Street" style="text;strokeColor=none;fillColor=none;spacingLeft=4;spacingRight=4;overflow=hidden;rotatable=0;points=[[0,0.5],[1,0.5]];portConstraint=eastwest;fontSize=12;fontColor=#1D3557;" vertex="1" parent="GUcHN5ARu1pP9IUez5kW-157">
          <mxGeometry y="26" width="160" height="30" as="geometry" />
        </mxCell>
        <mxCell id="GUcHN5ARu1pP9IUez5kW-388" value="Apt." style="text;strokeColor=none;fillColor=none;spacingLeft=4;spacingRight=4;overflow=hidden;rotatable=0;points=[[0,0.5],[1,0.5]];portConstraint=eastwest;fontSize=12;fontColor=#1D3557;" vertex="1" parent="GUcHN5ARu1pP9IUez5kW-157">
          <mxGeometry y="56" width="160" height="30" as="geometry" />
        </mxCell>
        <mxCell id="GUcHN5ARu1pP9IUez5kW-159" value="City" style="text;strokeColor=none;fillColor=none;spacingLeft=4;spacingRight=4;overflow=hidden;rotatable=0;points=[[0,0.5],[1,0.5]];portConstraint=eastwest;fontSize=12;fontColor=#1D3557;" vertex="1" parent="GUcHN5ARu1pP9IUez5kW-157">
          <mxGeometry y="86" width="160" height="30" as="geometry" />
        </mxCell>
        <mxCell id="GUcHN5ARu1pP9IUez5kW-160" value="Country" style="text;strokeColor=none;fillColor=none;spacingLeft=4;spacingRight=4;overflow=hidden;rotatable=0;points=[[0,0.5],[1,0.5]];portConstraint=eastwest;fontSize=12;fontColor=#1D3557;" vertex="1" parent="GUcHN5ARu1pP9IUez5kW-157">
          <mxGeometry y="116" width="160" height="30" as="geometry" />
        </mxCell>
        <mxCell id="GUcHN5ARu1pP9IUez5kW-389" value="Zipcode" style="text;strokeColor=none;fillColor=none;spacingLeft=4;spacingRight=4;overflow=hidden;rotatable=0;points=[[0,0.5],[1,0.5]];portConstraint=eastwest;fontSize=12;fontColor=#1D3557;" vertex="1" parent="GUcHN5ARu1pP9IUez5kW-157">
          <mxGeometry y="146" width="160" height="30" as="geometry" />
        </mxCell>
        <mxCell id="GUcHN5ARu1pP9IUez5kW-390" value="Address description" style="text;strokeColor=none;fillColor=none;spacingLeft=4;spacingRight=4;overflow=hidden;rotatable=0;points=[[0,0.5],[1,0.5]];portConstraint=eastwest;fontSize=12;fontColor=#1D3557;" vertex="1" parent="GUcHN5ARu1pP9IUez5kW-157">
          <mxGeometry y="176" width="160" height="30" as="geometry" />
        </mxCell>
        <mxCell id="GUcHN5ARu1pP9IUez5kW-161" value="" style="edgeStyle=entityRelationEdgeStyle;fontSize=12;html=1;endArrow=ERoneToMany;entryX=1;entryY=0;entryDx=0;entryDy=0;exitX=0;exitY=0.5;exitDx=0;exitDy=0;labelBackgroundColor=#F1FAEE;strokeColor=#457B9D;fontColor=#1D3557;" edge="1" parent="1" source="GUcHN5ARu1pP9IUez5kW-42" target="GUcHN5ARu1pP9IUez5kW-157">
          <mxGeometry width="100" height="100" relative="1" as="geometry">
            <mxPoint x="-70" y="330" as="sourcePoint" />
            <mxPoint x="30" y="230" as="targetPoint" />
          </mxGeometry>
        </mxCell>
        <mxCell id="GUcHN5ARu1pP9IUez5kW-392" value="Contact" style="swimlane;fontStyle=0;childLayout=stackLayout;horizontal=1;startSize=26;horizontalStack=0;resizeParent=1;resizeParentMax=0;resizeLast=0;collapsible=1;marginBottom=0;align=center;fontSize=14;glass=0;shadow=0;fillColor=#A8DADC;strokeColor=#457B9D;fontColor=#1D3557;" vertex="1" collapsed="1" parent="1">
          <mxGeometry x="-240" y="460" width="160" height="26" as="geometry">
            <mxRectangle x="-240" y="460" width="160" height="146" as="alternateBounds" />
          </mxGeometry>
        </mxCell>
        <mxCell id="GUcHN5ARu1pP9IUez5kW-394" value="Email" style="text;strokeColor=none;fillColor=none;spacingLeft=4;spacingRight=4;overflow=hidden;rotatable=0;points=[[0,0.5],[1,0.5]];portConstraint=eastwest;fontSize=12;fontColor=#1D3557;" vertex="1" parent="GUcHN5ARu1pP9IUez5kW-392">
          <mxGeometry y="26" width="160" height="30" as="geometry" />
        </mxCell>
        <mxCell id="GUcHN5ARu1pP9IUez5kW-396" value="Email-Validated" style="text;strokeColor=none;fillColor=none;spacingLeft=4;spacingRight=4;overflow=hidden;rotatable=0;points=[[0,0.5],[1,0.5]];portConstraint=eastwest;fontSize=12;fontColor=#1D3557;" vertex="1" parent="GUcHN5ARu1pP9IUez5kW-392">
          <mxGeometry y="56" width="160" height="30" as="geometry" />
        </mxCell>
        <mxCell id="GUcHN5ARu1pP9IUez5kW-397" value="PhoneNo" style="text;strokeColor=none;fillColor=none;spacingLeft=4;spacingRight=4;overflow=hidden;rotatable=0;points=[[0,0.5],[1,0.5]];portConstraint=eastwest;fontSize=12;fontColor=#1D3557;" vertex="1" parent="GUcHN5ARu1pP9IUez5kW-392">
          <mxGeometry y="86" width="160" height="30" as="geometry" />
        </mxCell>
        <mxCell id="GUcHN5ARu1pP9IUez5kW-398" value="PhoneNo-Validated" style="text;strokeColor=none;fillColor=none;spacingLeft=4;spacingRight=4;overflow=hidden;rotatable=0;points=[[0,0.5],[1,0.5]];portConstraint=eastwest;fontSize=12;fontColor=#1D3557;" vertex="1" parent="GUcHN5ARu1pP9IUez5kW-392">
          <mxGeometry y="116" width="160" height="30" as="geometry" />
        </mxCell>
        <mxCell id="GUcHN5ARu1pP9IUez5kW-399" value="" style="edgeStyle=entityRelationEdgeStyle;fontSize=12;html=1;endArrow=ERone;endFill=1;labelBackgroundColor=#F1FAEE;strokeColor=#457B9D;fontColor=#1D3557;exitX=0;exitY=0.5;exitDx=0;exitDy=0;entryX=1;entryY=0;entryDx=0;entryDy=0;" edge="1" parent="1" source="GUcHN5ARu1pP9IUez5kW-45" target="GUcHN5ARu1pP9IUez5kW-392">
          <mxGeometry width="100" height="100" relative="1" as="geometry">
            <mxPoint x="-10" y="270" as="sourcePoint" />
            <mxPoint y="460" as="targetPoint" />
          </mxGeometry>
        </mxCell>
      </root>
    </mxGraphModel>
  </diagram>
</mxfile>
